<svg width="775" height="270" viewBox="0 0 775 270" fill="none" xmlns="http://www.w3.org/2000/svg">
<path fill-rule="evenodd" clip-rule="evenodd" d="M481.344 132.7C481.344 190.345 434.671 237.076 377.097 237.076C334.662 237.076 303.812 214.396 278 177.393C278 177.393 297.5 162.324 297.5 132.324C297.5 102.324 278.647 87.0832 278.647 87.0832C304.328 50.6271 335.016 28.3238 377.097 28.3238C434.671 28.3238 481.344 75.0546 481.344 132.7ZM439.645 132.7C439.645 167.287 411.641 195.326 377.096 195.326C342.552 195.326 314.548 167.287 314.548 132.7C314.548 98.1127 342.552 70.0742 377.096 70.0742C411.641 70.0742 439.645 98.1127 439.645 132.7Z" fill="#FBFBFB"/>
<path fill-rule="evenodd" clip-rule="evenodd" d="M234.825 27.5193C177.073 27.5193 130.256 74.2501 130.256 131.895C130.256 189.541 177.073 236.272 234.825 236.272C277.371 236.272 308.307 213.613 334.191 176.643C343.191 163.788 351.58 149.203 359.634 133.238C360.06 132.394 360.06 131.397 359.634 130.552C351.58 114.588 343.191 100.003 334.191 87.1482C308.307 50.1776 277.371 27.5193 234.825 27.5193ZM234.826 69.2697C200.174 69.2697 172.084 97.3082 172.084 131.895C172.084 166.483 200.174 194.521 234.826 194.521C269.477 194.521 297.567 166.483 297.567 131.895C297.567 97.3082 269.477 69.2697 234.826 69.2697Z" fill="#FBFBFB"/>
<path d="M106.48 3.44503C107.652 2.27346 109.551 2.27346 110.723 3.44503L127.693 20.4156C128.865 21.5872 128.865 23.4867 127.693 24.6582L22.3346 130.017C21.163 131.189 19.2635 131.189 18.092 130.017L1.12139 113.047C-0.0501833 111.875 -0.0501845 109.976 1.12139 108.804L106.48 3.44503Z" fill="#FBFBFB"/>
<path d="M668.335 261.017C667.163 262.189 665.264 262.189 664.092 261.017L647.121 244.047C645.95 242.875 645.95 240.975 647.121 239.804L752.48 134.445C753.652 133.273 755.551 133.273 756.723 134.445L773.694 151.416C774.865 152.587 774.865 154.487 773.694 155.658L668.335 261.017Z" fill="#FBFBFB"/>
<path d="M127.693 239.804C128.865 240.976 128.865 242.875 127.693 244.047L110.723 261.017C109.551 262.189 107.652 262.189 106.48 261.017L1.12132 155.658C-0.0502546 154.487 -0.0502521 152.587 1.12132 151.416L18.0919 134.445C19.2635 133.273 21.163 133.273 22.3345 134.445L127.693 239.804Z" fill="#FBFBFB"/>
<path d="M647.122 24.6582C645.95 23.4866 645.95 21.5871 647.122 20.4155L664.092 3.44497C665.264 2.2734 667.163 2.2734 668.335 3.44497L773.694 108.804C774.865 109.975 774.865 111.875 773.694 113.047L756.723 130.017C755.551 131.189 753.652 131.189 752.48 130.017L647.122 24.6582Z" fill="#FBFBFB"/>
<path d="M532.436 269.211C534.036 269.64 535.681 268.69 536.11 267.09L594.134 50.5405C594.645 48.6341 596.826 47.7319 598.534 48.7201L610.867 55.8537C613.364 57.2984 616.262 54.7292 615.127 52.0766L593.917 2.50917C593.152 0.722149 590.916 0.122968 589.36 1.28824L546.208 33.6099C543.899 35.3396 545.124 39.0134 548.009 39.011L562.256 38.9994C564.23 38.9978 565.667 40.8695 565.156 42.7759L507.132 259.325C506.703 260.926 507.653 262.571 509.253 262.999L532.436 269.211Z" fill="#FBFBFB"/>
</svg>
